<svg xmlns="http://www.w3.org/2000/svg" version="1.1" xmlns:xlink="http://www.w3.org/1999/xlink" xmlns:svgjs="http://svgjs.dev/svgjs" viewBox="0 0 800 800"><defs><linearGradient x1="50%" y1="0%" x2="50%" y2="100%" id="ffflurry-grad" gradientTransform="rotate(270)"><stop stop-color="hsl(180, 2%, 92%)" stop-opacity="1" offset="0%"></stop><stop stop-color="hsl(18, 100%, 63%)" stop-opacity="1" offset="45%"></stop><stop stop-color="hsl(18, 100%, 63%)" stop-opacity="1" offset="100%"></stop></linearGradient></defs><rect width="100%" height="100%" fill="hsl(180, 2%, 92%)"></rect><g fill="url(#ffflurry-grad)"><rect width="704" height="3" x="406" y="473.5" rx="1.5" transform="rotate(180, 758, 475)" opacity="0.45"></rect><rect width="265" height="3" x="192.5" y="582.5" rx="1.5" transform="rotate(180, 325, 584)" opacity="0.18"></rect><rect width="556" height="3" x="396" y="502.5" rx="1.5" transform="rotate(180, 674, 504)" opacity="0.53"></rect><rect width="293" height="3" x="182.5" y="222.5" rx="1.5" transform="rotate(180, 329, 224)" opacity="0.25"></rect><rect width="337" height="3" x="206.5" y="641.5" rx="1.5" transform="rotate(180, 375, 643)" opacity="0.19"></rect><rect width="174" height="3" x="448" y="478.5" rx="1.5" transform="rotate(180, 535, 480)" opacity="0.87"></rect><rect width="58" height="3" x="311" y="442.5" rx="1.5" transform="rotate(180, 340, 444)" opacity="0.48"></rect><rect width="245" height="3" x="516.5" y="161.5" rx="1.5" transform="rotate(180, 639, 163)" opacity="0.43"></rect><rect width="176" height="3" x="336" y="27.5" rx="1.5" transform="rotate(180, 424, 29)" opacity="0.16"></rect><rect width="57" height="3" x="25.5" y="313.5" rx="1.5" transform="rotate(180, 54, 315)" opacity="0.33"></rect><rect width="189" height="3" x="148.5" y="359.5" rx="1.5" transform="rotate(180, 243, 361)" opacity="0.23"></rect><rect width="306" height="3" x="592" y="732.5" rx="1.5" transform="rotate(180, 745, 734)" opacity="0.38"></rect><rect width="394" height="3" x="354" y="22.5" rx="1.5" transform="rotate(180, 551, 24)" opacity="0.95"></rect><rect width="235" height="3" x="140.5" y="56.5" rx="1.5" transform="rotate(180, 258, 58)" opacity="0.54"></rect><rect width="283" height="3" x="40.5" y="771.5" rx="1.5" transform="rotate(180, 182, 773)" opacity="0.91"></rect><rect width="329" height="3" x="426.5" y="496.5" rx="1.5" transform="rotate(180, 591, 498)" opacity="0.73"></rect><rect width="149" height="3" x="311.5" y="578.5" rx="1.5" transform="rotate(180, 386, 580)" opacity="0.56"></rect><rect width="93" height="3" x="254.5" y="29.5" rx="1.5" transform="rotate(180, 301, 31)" opacity="0.76"></rect><rect width="229" height="3" x="147.5" y="574.5" rx="1.5" transform="rotate(180, 262, 576)" opacity="0.99"></rect><rect width="166" height="3" x="188" y="284.5" rx="1.5" transform="rotate(180, 271, 286)" opacity="0.47"></rect><rect width="339" height="3" x="187.5" y="36.5" rx="1.5" transform="rotate(180, 357, 38)" opacity="0.38"></rect><rect width="272" height="3" x="-9" y="528.5" rx="1.5" transform="rotate(180, 127, 530)" opacity="0.55"></rect><rect width="199" height="3" x="681.5" y="706.5" rx="1.5" transform="rotate(180, 781, 708)" opacity="0.99"></rect><rect width="282" height="3" x="-84" y="240.5" rx="1.5" transform="rotate(180, 57, 242)" opacity="0.59"></rect><rect width="333" height="3" x="67.5" y="647.5" rx="1.5" transform="rotate(180, 234, 649)" opacity="0.54"></rect><rect width="141" height="3" x="557.5" y="207.5" rx="1.5" transform="rotate(180, 628, 209)" opacity="0.16"></rect><rect width="170" height="3" x="597" y="317.5" rx="1.5" transform="rotate(180, 682, 319)" opacity="0.58"></rect><rect width="682" height="3" x="63" y="216.5" rx="1.5" transform="rotate(180, 404, 218)" opacity="0.16"></rect><rect width="270" height="3" x="186" y="372.5" rx="1.5" transform="rotate(180, 321, 374)" opacity="0.50"></rect><rect width="334" height="3" x="122" y="98.5" rx="1.5" transform="rotate(180, 289, 100)" opacity="0.28"></rect><rect width="150" height="3" x="215" y="645.5" rx="1.5" transform="rotate(180, 290, 647)" opacity="0.78"></rect><rect width="584" height="3" x="-259" y="647.5" rx="1.5" transform="rotate(180, 33, 649)" opacity="0.66"></rect><rect width="127" height="3" x="41.5" y="306.5" rx="1.5" transform="rotate(180, 105, 308)" opacity="0.22"></rect><rect width="415" height="3" x="463.5" y="711.5" rx="1.5" transform="rotate(180, 671, 713)" opacity="0.13"></rect><rect width="448" height="3" x="23" y="205.5" rx="1.5" transform="rotate(180, 247, 207)" opacity="0.62"></rect><rect width="139" height="3" x="-24.5" y="23.5" rx="1.5" transform="rotate(180, 45, 25)" opacity="0.08"></rect><rect width="347" height="3" x="-153.5" y="201.5" rx="1.5" transform="rotate(180, 20, 203)" opacity="0.48"></rect><rect width="273" height="3" x="437.5" y="79.5" rx="1.5" transform="rotate(180, 574, 81)" opacity="0.36"></rect><rect width="207" height="3" x="-86.5" y="328.5" rx="1.5" transform="rotate(180, 17, 330)" opacity="0.16"></rect><rect width="285" height="3" x="33.5" y="329.5" rx="1.5" transform="rotate(180, 176, 331)" opacity="0.12"></rect><rect width="254" height="3" x="284" y="748.5" rx="1.5" transform="rotate(180, 411, 750)" opacity="0.49"></rect><rect width="550" height="3" x="168" y="509.5" rx="1.5" transform="rotate(180, 443, 511)" opacity="0.38"></rect><rect width="283" height="3" x="-99.5" y="394.5" rx="1.5" transform="rotate(180, 42, 396)" opacity="0.88"></rect><rect width="241" height="3" x="660.5" y="774.5" rx="1.5" transform="rotate(180, 781, 776)" opacity="0.49"></rect><rect width="407" height="3" x="290.5" y="206.5" rx="1.5" transform="rotate(180, 494, 208)" opacity="0.37"></rect><rect width="315" height="3" x="-36.5" y="384.5" rx="1.5" transform="rotate(180, 121, 386)" opacity="0.80"></rect><rect width="426" height="3" x="304" y="127.5" rx="1.5" transform="rotate(180, 517, 129)" opacity="0.67"></rect><rect width="61" height="3" x="181.5" y="251.5" rx="1.5" transform="rotate(180, 212, 253)" opacity="0.22"></rect><rect width="421" height="3" x="-170.5" y="547.5" rx="1.5" transform="rotate(180, 40, 549)" opacity="0.66"></rect><rect width="560" height="3" x="-66" y="121.5" rx="1.5" transform="rotate(180, 214, 123)" opacity="0.15"></rect><rect width="194" height="3" x="-65" y="751.5" rx="1.5" transform="rotate(180, 32, 753)" opacity="0.79"></rect><rect width="50" height="3" x="177" y="546.5" rx="1.5" transform="rotate(180, 202, 548)" opacity="0.74"></rect><rect width="453" height="3" x="-139.5" y="608.5" rx="1.5" transform="rotate(180, 87, 610)" opacity="0.63"></rect><rect width="230" height="3" x="21" y="657.5" rx="1.5" transform="rotate(180, 136, 659)" opacity="0.71"></rect><rect width="718" height="3" x="-272" y="144.5" rx="1.5" transform="rotate(180, 87, 146)" opacity="0.09"></rect><rect width="109" height="3" x="538.5" y="607.5" rx="1.5" transform="rotate(180, 593, 609)" opacity="0.89"></rect><rect width="262" height="3" x="315" y="145.5" rx="1.5" transform="rotate(180, 446, 147)" opacity="0.72"></rect><rect width="151" height="3" x="486.5" y="222.5" rx="1.5" transform="rotate(180, 562, 224)" opacity="0.86"></rect><rect width="268" height="3" x="608" y="331.5" rx="1.5" transform="rotate(180, 742, 333)" opacity="0.48"></rect><rect width="301" height="3" x="441.5" y="770.5" rx="1.5" transform="rotate(180, 592, 772)" opacity="0.67"></rect><rect width="515" height="3" x="17.5" y="737.5" rx="1.5" transform="rotate(180, 275, 739)" opacity="0.50"></rect><rect width="158" height="3" x="252" y="769.5" rx="1.5" transform="rotate(180, 331, 771)" opacity="0.46"></rect><rect width="231" height="3" x="435.5" y="286.5" rx="1.5" transform="rotate(180, 551, 288)" opacity="0.14"></rect><rect width="234" height="3" x="632" y="656.5" rx="1.5" transform="rotate(180, 749, 658)" opacity="0.62"></rect><rect width="131" height="3" x="25.5" y="741.5" rx="1.5" transform="rotate(180, 91, 743)" opacity="0.69"></rect><rect width="379" height="3" x="484.5" y="20.5" rx="1.5" transform="rotate(180, 674, 22)" opacity="0.92"></rect><rect width="478" height="3" x="-205" y="92.5" rx="1.5" transform="rotate(180, 34, 94)" opacity="0.50"></rect><rect width="183" height="3" x="409.5" y="752.5" rx="1.5" transform="rotate(180, 501, 754)" opacity="0.14"></rect><rect width="191" height="3" x="355.5" y="590.5" rx="1.5" transform="rotate(180, 451, 592)" opacity="0.80"></rect><rect width="185" height="3" x="611.5" y="70.5" rx="1.5" transform="rotate(180, 704, 72)" opacity="0.80"></rect><rect width="91" height="3" x="101.5" y="591.5" rx="1.5" transform="rotate(180, 147, 593)" opacity="0.86"></rect><rect width="215" height="3" x="4.5" y="463.5" rx="1.5" transform="rotate(180, 112, 465)" opacity="0.45"></rect><rect width="302" height="3" x="328" y="441.5" rx="1.5" transform="rotate(180, 479, 443)" opacity="0.29"></rect><rect width="179" height="3" x="415.5" y="74.5" rx="1.5" transform="rotate(180, 505, 76)" opacity="0.13"></rect><rect width="421" height="3" x="6.5" y="714.5" rx="1.5" transform="rotate(180, 217, 716)" opacity="0.46"></rect><rect width="458" height="3" x="404" y="432.5" rx="1.5" transform="rotate(180, 633, 434)" opacity="0.63"></rect><rect width="129" height="3" x="106.5" y="430.5" rx="1.5" transform="rotate(180, 171, 432)" opacity="0.96"></rect><rect width="140" height="3" x="667" y="154.5" rx="1.5" transform="rotate(180, 737, 156)" opacity="0.89"></rect><rect width="369" height="3" x="282.5" y="361.5" rx="1.5" transform="rotate(180, 467, 363)" opacity="0.71"></rect><rect width="299" height="3" x="173.5" y="518.5" rx="1.5" transform="rotate(180, 323, 520)" opacity="0.40"></rect><rect width="251" height="3" x="421.5" y="414.5" rx="1.5" transform="rotate(180, 547, 416)" opacity="0.75"></rect><rect width="465" height="3" x="327.5" y="358.5" rx="1.5" transform="rotate(180, 560, 360)" opacity="0.22"></rect><rect width="46" height="3" x="239" y="428.5" rx="1.5" transform="rotate(180, 262, 430)" opacity="0.62"></rect><rect width="132" height="3" x="604" y="626.5" rx="1.5" transform="rotate(180, 670, 628)" opacity="0.88"></rect><rect width="478" height="3" x="178" y="300.5" rx="1.5" transform="rotate(180, 417, 302)" opacity="0.35"></rect><rect width="87" height="3" x="369.5" y="443.5" rx="1.5" transform="rotate(180, 413, 445)" opacity="0.37"></rect><rect width="99" height="3" x="159.5" y="469.5" rx="1.5" transform="rotate(180, 209, 471)" opacity="0.45"></rect><rect width="67" height="3" x="684.5" y="209.5" rx="1.5" transform="rotate(180, 718, 211)" opacity="0.76"></rect><rect width="197" height="3" x="205.5" y="157.5" rx="1.5" transform="rotate(180, 304, 159)" opacity="0.71"></rect><rect width="393" height="3" x="-59.5" y="706.5" rx="1.5" transform="rotate(180, 137, 708)" opacity="0.98"></rect><rect width="408" height="3" x="537" y="260.5" rx="1.5" transform="rotate(180, 741, 262)" opacity="0.67"></rect><rect width="295" height="3" x="201.5" y="303.5" rx="1.5" transform="rotate(180, 349, 305)" opacity="0.39"></rect><rect width="362" height="3" x="19" y="51.5" rx="1.5" transform="rotate(180, 200, 53)" opacity="0.69"></rect><rect width="498" height="3" x="129" y="112.5" rx="1.5" transform="rotate(180, 378, 114)" opacity="0.39"></rect><rect width="214" height="3" x="530" y="102.5" rx="1.5" transform="rotate(180, 637, 104)" opacity="0.92"></rect><rect width="239" height="3" x="661.5" y="180.5" rx="1.5" transform="rotate(180, 781, 182)" opacity="0.91"></rect><rect width="54" height="3" x="350" y="510.5" rx="1.5" transform="rotate(180, 377, 512)" opacity="0.57"></rect><rect width="359" height="3" x="566.5" y="573.5" rx="1.5" transform="rotate(180, 746, 575)" opacity="0.41"></rect><rect width="157" height="3" x="652.5" y="773.5" rx="1.5" transform="rotate(180, 731, 775)" opacity="0.45"></rect><rect width="315" height="3" x="611.5" y="72.5" rx="1.5" transform="rotate(180, 769, 74)" opacity="0.17"></rect><rect width="241" height="3" x="118.5" y="17.5" rx="1.5" transform="rotate(180, 239, 19)" opacity="0.15"></rect><rect width="174" height="3" x="532" y="320.5" rx="1.5" transform="rotate(180, 619, 322)" opacity="0.94"></rect><rect width="347" height="3" x="517.5" y="137.5" rx="1.5" transform="rotate(180, 691, 139)" opacity="0.68"></rect><rect width="279" height="3" x="28.5" y="258.5" rx="1.5" transform="rotate(180, 168, 260)" opacity="0.58"></rect><rect width="271" height="3" x="53.5" y="630.5" rx="1.5" transform="rotate(180, 189, 632)" opacity="0.78"></rect><rect width="237" height="3" x="465.5" y="716.5" rx="1.5" transform="rotate(180, 584, 718)" opacity="0.33"></rect><rect width="229" height="3" x="475.5" y="559.5" rx="1.5" transform="rotate(180, 590, 561)" opacity="0.75"></rect><rect width="144" height="3" x="691" y="112.5" rx="1.5" transform="rotate(180, 763, 114)" opacity="0.68"></rect><rect width="126" height="3" x="582" y="554.5" rx="1.5" transform="rotate(180, 645, 556)" opacity="0.24"></rect><rect width="375" height="3" x="-68.5" y="222.5" rx="1.5" transform="rotate(180, 119, 224)" opacity="0.60"></rect><rect width="114" height="3" x="428" y="288.5" rx="1.5" transform="rotate(180, 485, 290)" opacity="0.36"></rect><rect width="591" height="3" x="-256.5" y="467.5" rx="1.5" transform="rotate(180, 39, 469)" opacity="0.40"></rect><rect width="153" height="3" x="449.5" y="639.5" rx="1.5" transform="rotate(180, 526, 641)" opacity="0.89"></rect><rect width="316" height="3" x="-9" y="23.5" rx="1.5" transform="rotate(180, 149, 25)" opacity="0.97"></rect><rect width="347" height="3" x="224.5" y="381.5" rx="1.5" transform="rotate(180, 398, 383)" opacity="0.67"></rect><rect width="93" height="3" x="224.5" y="497.5" rx="1.5" transform="rotate(180, 271, 499)" opacity="0.60"></rect><rect width="412" height="3" x="391" y="666.5" rx="1.5" transform="rotate(180, 597, 668)" opacity="0.37"></rect><rect width="285" height="3" x="616.5" y="23.5" rx="1.5" transform="rotate(180, 759, 25)" opacity="0.56"></rect><rect width="347" height="3" x="523.5" y="396.5" rx="1.5" transform="rotate(180, 697, 398)" opacity="0.61"></rect><rect width="171" height="3" x="33.5" y="71.5" rx="1.5" transform="rotate(180, 119, 73)" opacity="0.36"></rect><rect width="426" height="3" x="428" y="255.5" rx="1.5" transform="rotate(180, 641, 257)" opacity="0.14"></rect><rect width="291" height="3" x="479.5" y="43.5" rx="1.5" transform="rotate(180, 625, 45)" opacity="0.72"></rect><rect width="119" height="3" x="404.5" y="52.5" rx="1.5" transform="rotate(180, 464, 54)" opacity="0.43"></rect><rect width="130" height="3" x="276" y="693.5" rx="1.5" transform="rotate(180, 341, 695)" opacity="0.49"></rect><rect width="327" height="3" x="353.5" y="549.5" rx="1.5" transform="rotate(180, 517, 551)" opacity="0.64"></rect><rect width="392" height="3" x="258" y="673.5" rx="1.5" transform="rotate(180, 454, 675)" opacity="0.59"></rect><rect width="113" height="3" x="617.5" y="773.5" rx="1.5" transform="rotate(180, 674, 775)" opacity="0.90"></rect><rect width="445" height="3" x="-50.5" y="167.5" rx="1.5" transform="rotate(180, 172, 169)" opacity="0.25"></rect><rect width="159" height="3" x="492.5" y="149.5" rx="1.5" transform="rotate(180, 572, 151)" opacity="0.08"></rect><rect width="259" height="3" x="652.5" y="348.5" rx="1.5" transform="rotate(180, 782, 350)" opacity="0.40"></rect></g></svg>